<svg width="20" height="20" viewBox="0 0 20 20" fill="none" xmlns="http://www.w3.org/2000/svg">
<path d="M10 0.75C12.8533 0.75 14.9465 0.84476 16.3682 0.946289C17.8302 1.05071 18.9493 2.16981 19.0537 3.63184C19.1552 5.0535 19.25 7.14669 19.25 10C19.25 12.8533 19.1552 14.9465 19.0537 16.3682C18.9493 17.8302 17.8302 18.9493 16.3682 19.0537C14.9465 19.1552 12.8533 19.25 10 19.25C7.1467 19.25 5.05351 19.1552 3.63184 19.0537C2.16982 18.9493 1.05071 17.8302 0.946289 16.3682C0.844755 14.9465 0.75 12.8533 0.75 10C0.75 7.14669 0.844755 5.0535 0.946289 3.63184C1.05071 2.16982 2.16982 1.05071 3.63184 0.946289C5.05351 0.84476 7.14669 0.75 10 0.75Z" stroke="#96C4FA" stroke-width="1.5"/>
<path fill-rule="evenodd" clip-rule="evenodd" d="M13.6037 7.66665C13.6037 8.90682 13.0005 10.0032 12.0772 10.6668C13.3512 11.157 14.3657 12.0846 14.8852 13.2384C15.2164 13.9743 14.8024 14.8553 14.0104 14.9042L13.9873 14.9055C13.0146 14.9573 11.6979 15 9.99986 15C8.30175 15 6.9851 14.9573 6.01239 14.9055L5.98976 14.9042C5.19764 14.8554 4.78353 13.9744 5.11485 13.2385C5.63627 12.0801 6.65671 11.1499 7.93769 10.6611C7.01882 9.99696 6.419 8.90331 6.419 7.66665C6.419 5.64161 8.02735 4 10.0114 4C11.9954 4 13.6037 5.64161 13.6037 7.66665Z" fill="#96C4FA"/>
</svg>
