<svg width="7" height="8" viewBox="0 0 7 8" fill="none" xmlns="http://www.w3.org/2000/svg">
<path d="M0.666667 2.66699H5.33333V2.00033H0.666667V2.66699ZM0.666667 7.33366C0.483333 7.33366 0.326389 7.26838 0.195833 7.13783C0.0652778 7.00727 0 6.85033 0 6.66699V2.00033C0 1.81699 0.0652778 1.66005 0.195833 1.52949C0.326389 1.39894 0.483333 1.33366 0.666667 1.33366H1V0.666992H1.66667V1.33366H4.33333V0.666992H5V1.33366H5.33333C5.51667 1.33366 5.67361 1.39894 5.80417 1.52949C5.93472 1.66005 6 1.81699 6 2.00033V3.89199C5.89444 3.84199 5.78611 3.80033 5.675 3.76699C5.56389 3.73366 5.45 3.70866 5.33333 3.69199V3.33366H0.666667V6.66699H2.76667C2.80556 6.78921 2.85139 6.90588 2.90417 7.01699C2.95694 7.1281 3.01944 7.23366 3.09167 7.33366H0.666667ZM5 7.66699C4.53889 7.66699 4.14583 7.50449 3.82083 7.17949C3.49583 6.85449 3.33333 6.46144 3.33333 6.00033C3.33333 5.53921 3.49583 5.14616 3.82083 4.82116C4.14583 4.49616 4.53889 4.33366 5 4.33366C5.46111 4.33366 5.85417 4.49616 6.17917 4.82116C6.50417 5.14616 6.66667 5.53921 6.66667 6.00033C6.66667 6.46144 6.50417 6.85449 6.17917 7.17949C5.85417 7.50449 5.46111 7.66699 5 7.66699ZM5.55833 6.79199L5.79167 6.55866L5.16667 5.93366V5.00033H4.83333V6.06699L5.55833 6.79199Z" fill="#808080"/>
</svg>
