<?xml version="1.0" encoding="UTF-8" standalone="no"?><!DOCTYPE svg PUBLIC "-//W3C//DTD SVG 1.1//EN" "http://www.w3.org/Graphics/SVG/1.1/DTD/svg11.dtd"><svg width="100%" height="100%" viewBox="0 0 289 296" version="1.1" xmlns="http://www.w3.org/2000/svg" xmlns:xlink="http://www.w3.org/1999/xlink" xml:space="preserve" xmlns:serif="http://www.serif.com/" style="fill-rule:evenodd;clip-rule:evenodd;stroke-linejoin:round;stroke-miterlimit:2;"><g><g><path d="M101.027,76.855l0,23.201c0,3.945 -3.203,7.147 -7.147,7.147l-14.295,0c-3.945,0 -7.147,-3.203 -7.147,-7.147l0,-23.201c0,-3.945 3.203,-7.147 7.147,-7.147l14.295,0c3.945,0 7.147,3.203 7.147,7.147Z" style="fill:#2859c5;"/><path d="M101.027,135.469l0,23.201c0,3.945 -3.203,7.147 -7.147,7.147l-14.295,0c-3.945,0 -7.147,-3.203 -7.147,-7.147l0,-23.201c0,-3.945 3.203,-7.147 7.147,-7.147l14.295,0c3.945,0 7.147,3.203 7.147,7.147Z" style="fill:#2859c5;"/><path d="M162.674,76.855l0,23.201c0,3.945 -3.203,7.147 -7.147,7.147l-14.295,0c-3.945,0 -7.147,-3.203 -7.147,-7.147l0,-23.201c0,-3.945 3.203,-7.147 7.147,-7.147l14.295,0c3.945,0 7.147,3.203 7.147,7.147Z" style="fill:#2859c5;"/><path d="M162.674,135.469l0,23.201c0,3.945 -3.203,7.147 -7.147,7.147l-14.295,0c-3.945,0 -7.147,-3.203 -7.147,-7.147l0,-23.201c0,-3.945 3.203,-7.147 7.147,-7.147l14.295,0c3.945,0 7.147,3.203 7.147,7.147Z" style="fill:#2859c5;"/></g><g><g><path d="M145.159,270.152c6.899,0 12.5,5.601 12.5,12.5c-0,6.899 -5.601,12.5 -12.5,12.5l-79.332,0c-36.179,0 -65.826,-30.402 -65.826,-68.173l0,-158.805c0,-37.771 29.647,-68.173 65.826,-68.173l106.653,0c36.179,0 65.826,30.402 65.826,68.173l0,45.381c0,6.899 -5.601,12.5 -12.5,12.5c-6.899,0 -12.5,-5.601 -12.5,-12.5l0,-45.381c0,-23.683 -18.142,-43.173 -40.826,-43.173l-106.653,0c-22.685,0 -40.826,19.49 -40.826,43.173l0,158.805c0,23.683 18.142,43.173 40.826,43.173l79.332,0Z" style="fill:#8fbffa;"/></g></g><g><path d="M241.362,283.913c-9.521,5.078 -20.945,5.078 -30.466,0c-18.331,-9.797 -46.677,-31.414 -46.677,-71.424c0,-34.169 27.741,-61.91 61.91,-61.91c34.169,0 61.91,27.741 61.91,61.91c-0,40.01 -28.346,61.627 -46.678,71.423Z" style="fill:#2859c5;"/><ellipse cx="225.084" cy="212.195" rx="25.965" ry="25.051" style="fill:#8fbffa;"/></g><path d="M144.775,294.353l-0.008,0l0,-0.004l0.008,-0.022l0,0.025Z" style="fill:#2859c5;"/><path d="M145.371,295.302l-66.117,0c-4.051,-0 -7.851,-1.963 -10.195,-5.267c-3.364,-4.741 -5.391,-10.645 -5.391,-17.055l0,-32.505c0,-16.1 12.642,-28.752 27.671,-28.752l39.582,-0c3.649,-0 7.117,1.595 9.491,4.366c2.375,2.771 3.42,6.441 2.861,10.048c-0.449,2.898 -0.68,5.892 -0.68,8.962c0,0.375 0.002,0.748 0.006,1.117c0.003,0.27 -0.003,0.54 -0.018,0.81c-0.057,1.06 0.281,3.952 0.281,5.027c0,6.236 0.8,10.567 2.789,16.054c0.064,0.178 0.125,0.357 0.181,0.537c2.744,8.796 7.36,14.275 7.764,14.744c0.323,0.282 0.629,0.579 0.918,0.888l0.002,-0.005l0.013,0.022c1.246,1.34 2.166,2.922 2.722,4.623l0.028,0.047l0.012,0.076c0.381,1.208 0.58,2.474 0.581,3.755l0.014,0.092l-0.016,0.097c-0.017,1.181 -0.202,2.372 -0.566,3.539l-0.018,0.116l-0.059,0.124c-0.325,0.975 -0.763,1.889 -1.296,2.73l-0.057,0.121l-0.096,0.115c-0.497,0.746 -1.069,1.432 -1.705,2.048l-0.096,0.115l-0.126,0.094c-0.622,0.575 -1.302,1.084 -2.026,1.522l-0.116,0.087l-0.09,0.034c-1.132,0.654 -2.371,1.133 -3.676,1.407l-0.066,0.025l-0.077,0.004c-0.787,0.156 -1.598,0.237 -2.422,0.238l-0,-0.025l-0.008,0.022l-0,0.004Zm-56.703,-25l34.739,-0c-0.469,-1.256 -0.923,-2.571 -1.353,-3.932c-2.977,-8.278 -4.193,-14.867 -4.193,-24.316c0,-1.091 -0.203,-3.659 -0.247,-5.331l-26.277,0c-1.735,0 -2.671,1.894 -2.671,3.752l0,29.826Z" style="fill:#2859c5;"/></g></svg>