<svg width="20" height="20" viewBox="0 0 20 20" fill="none" xmlns="http://www.w3.org/2000/svg">
<mask id="mask0_1674_8691" style="mask-type:alpha" maskUnits="userSpaceOnUse" x="0" y="0" width="20" height="20">
<rect x="1.52588e-05" width="20" height="20" fill="#D9D9D9"/>
</mask>
<g mask="url(#mask0_1674_8691)">
<path d="M7.19997 10.5505H13.8001V9.28737H7.19997V10.5505ZM7.19997 12.9798H13.8001V11.7166H7.19997V12.9798ZM7.19997 15.4088H11.2001V14.1457H7.19997V15.4088ZM5.56673 18C5.12892 18 4.75835 17.8526 4.45502 17.5579C4.15168 17.2632 4.00002 16.9031 4.00002 16.4777V3.52232C4.00002 3.09691 4.15168 2.73684 4.45502 2.44211C4.75835 2.14737 5.12892 2 5.56673 2L12.45 2L17 6.42105V16.4777C17 16.9031 16.8483 17.2632 16.545 17.5579C16.2417 17.8526 15.8711 18 15.4333 18H5.56673ZM11.8 7.05263V3.26316H5.56673C5.5 3.26316 5.4389 3.29017 5.38343 3.34421C5.32782 3.3981 5.30002 3.45747 5.30002 3.52232V16.4777C5.30002 16.5425 5.32782 16.6019 5.38343 16.6558C5.4389 16.7098 5.5 16.7368 5.56673 16.7368H15.4333C15.5 16.7368 15.5611 16.7098 15.6166 16.6558C15.6722 16.6019 15.7 16.5425 15.7 16.4777V7.05263H11.8Z" fill="#A5A5A5"/>
</g>
</svg>
