<svg width="16" height="16" viewBox="0 0 16 16" fill="none" xmlns="http://www.w3.org/2000/svg">
<mask id="mask0_1760_7399" style="mask-type:alpha" maskUnits="userSpaceOnUse" x="0" y="0" width="16" height="16">
<rect width="16" height="16" fill="#D9D9D9"/>
</mask>
<g mask="url(#mask0_1760_7399)">
<path d="M10.1992 11.1335L11.1325 10.2002L8.66585 7.7335V4.66683H7.33252V8.26683L10.1992 11.1335ZM7.99919 14.6668C7.07696 14.6668 6.2103 14.4918 5.39919 14.1418C4.58807 13.7918 3.88252 13.3168 3.28252 12.7168C2.68252 12.1168 2.20752 11.4113 1.85752 10.6002C1.50752 9.78905 1.33252 8.92238 1.33252 8.00016C1.33252 7.07794 1.50752 6.21127 1.85752 5.40016C2.20752 4.58905 2.68252 3.8835 3.28252 3.2835C3.88252 2.6835 4.58807 2.2085 5.39919 1.8585C6.2103 1.5085 7.07696 1.3335 7.99919 1.3335C8.92141 1.3335 9.78807 1.5085 10.5992 1.8585C11.4103 2.2085 12.1159 2.6835 12.7159 3.2835C13.3159 3.8835 13.7909 4.58905 14.1409 5.40016C14.4909 6.21127 14.6659 7.07794 14.6659 8.00016C14.6659 8.92238 14.4909 9.78905 14.1409 10.6002C13.7909 11.4113 13.3159 12.1168 12.7159 12.7168C12.1159 13.3168 11.4103 13.7918 10.5992 14.1418C9.78807 14.4918 8.92141 14.6668 7.99919 14.6668Z" fill="#949494"/>
</g>
</svg>
