<svg width="24" height="16" viewBox="0 0 24 16" fill="none" xmlns="http://www.w3.org/2000/svg">
<path d="M1.52588e-05 0L24 0V5.33326L1.52588e-05 5.33326L1.52588e-05 0Z" fill="#FF9933"/>
<path d="M1.52588e-05 5.3335L24 5.3335V10.6668H1.52588e-05L1.52588e-05 5.3335Z" fill="white"/>
<path d="M1.52588e-05 10.6667H24V16H1.52588e-05L1.52588e-05 10.6667Z" fill="#128807"/>
<path d="M11.6819 10.0543C12.8202 10.0543 13.7429 9.13148 13.7429 7.99319C13.7429 6.8549 12.8202 5.93213 11.6819 5.93213C10.5436 5.93213 9.62082 6.8549 9.62082 7.99319C9.62082 9.13148 10.5436 10.0543 11.6819 10.0543Z" fill="#000088"/>
<path d="M11.6817 9.79631C12.6777 9.79631 13.4852 8.98889 13.4852 7.99288C13.4852 6.99688 12.6777 6.18945 11.6817 6.18945C10.6857 6.18945 9.8783 6.99688 9.8783 7.99288C9.8783 8.98889 10.6857 9.79631 11.6817 9.79631Z" fill="white"/>
<path d="M11.6815 8.35394C11.8807 8.35394 12.0422 8.19246 12.0422 7.99325C12.0422 7.79405 11.8807 7.63257 11.6815 7.63257C11.4823 7.63257 11.3208 7.79405 11.3208 7.99325C11.3208 8.19246 11.4823 8.35394 11.6815 8.35394Z" fill="#000088"/>
<path d="M13.4571 8.32101C13.5079 8.3277 13.5545 8.29195 13.5612 8.24117C13.5679 8.19038 13.5321 8.14379 13.4814 8.13711C13.4306 8.13042 13.384 8.16617 13.3773 8.21695C13.3706 8.26774 13.4064 8.31433 13.4571 8.32101Z" fill="#000088"/>
<path d="M11.6815 9.7963L11.7433 8.71424L11.6815 8.19897L11.6196 8.71424L11.6815 9.7963Z" fill="#000088"/>
<path d="M13.3097 8.77139C13.356 8.79001 13.4102 8.76595 13.4309 8.71764C13.4515 8.66933 13.4308 8.61508 13.3845 8.59646C13.3382 8.57784 13.284 8.6019 13.2633 8.65021C13.2427 8.69852 13.2634 8.75277 13.3097 8.77139Z" fill="#000088"/>
<path d="M11.21 9.73647L11.5515 8.70364L11.6328 8.19048L11.4414 8.67473L11.21 9.73647Z" fill="#000088"/>
<path d="M13.0531 9.16648C13.0926 9.1966 13.1509 9.18722 13.1831 9.14553C13.2154 9.10383 13.2095 9.04561 13.1699 9.01548C13.1304 8.98536 13.0722 8.99474 13.0399 9.03644C13.0076 9.07813 13.0135 9.13635 13.0531 9.16648Z" fill="#000088"/>
<path d="M10.7765 9.55681L11.3722 8.64605L11.5814 8.1696L11.2714 8.58811L10.7765 9.55681Z" fill="#000088"/>
<path d="M12.7032 9.48213C12.7334 9.52184 12.7916 9.528 12.8332 9.49589C12.8748 9.46378 12.8841 9.40556 12.8539 9.36585C12.8236 9.32614 12.7654 9.31998 12.7238 9.35209C12.6822 9.3842 12.673 9.44242 12.7032 9.48213Z" fill="#000088"/>
<path d="M10.4037 9.26995L11.2133 8.54378L11.5374 8.13642L11.1301 8.46038L10.4037 9.26995Z" fill="#000088"/>
<path d="M12.2878 9.69241C12.3085 9.7409 12.3628 9.76525 12.4089 9.74681C12.4551 9.72837 12.4757 9.67412 12.4549 9.62563C12.4341 9.57715 12.3799 9.55279 12.3337 9.57123C12.2876 9.58967 12.267 9.64393 12.2878 9.69241Z" fill="#000088"/>
<path d="M10.1223 8.89111L11.0896 8.41148L11.5014 8.09912L11.0235 8.29772L10.1223 8.89111Z" fill="#000088"/>
<path d="M11.8265 9.79076C11.8343 9.84274 11.8809 9.88043 11.9305 9.87494C11.9801 9.86945 12.014 9.82286 12.0062 9.77088C11.9983 9.7189 11.9517 9.68121 11.9021 9.6867C11.8525 9.69219 11.8186 9.73878 11.8265 9.79076Z" fill="#000088"/>
<path d="M9.9412 8.45483L11.0018 8.24658L11.4808 8.05167L10.9665 8.11687L9.9412 8.45483Z" fill="#000088"/>
<path d="M11.3515 9.76687C11.3461 9.81656 11.3839 9.86315 11.436 9.87093C11.488 9.87871 11.5346 9.84474 11.54 9.79505C11.5454 9.74536 11.5076 9.69877 11.4555 9.69099C11.4035 9.68321 11.3569 9.71718 11.3515 9.76687Z" fill="#000088"/>
<path d="M9.88021 7.97826L10.9617 8.04535L11.4742 8.00793L10.9583 7.95136L9.88021 7.97826Z" fill="#000088"/>
<path d="M10.9043 9.62247C10.8853 9.66937 10.9087 9.72362 10.9566 9.74365C11.0045 9.76369 11.0587 9.74191 11.0778 9.69502C11.0968 9.64812 11.0734 9.59387 11.0255 9.57384C10.9776 9.5538 10.9233 9.57558 10.9043 9.62247Z" fill="#000088"/>
<path d="M9.93887 7.52391L10.9702 7.8644L11.4836 7.94129L11.0004 7.74891L9.93887 7.52391Z" fill="#000088"/>
<path d="M10.5116 9.3686C10.4793 9.41032 10.4852 9.46854 10.5247 9.49865C10.5643 9.52875 10.6225 9.51934 10.6548 9.47763C10.6871 9.43592 10.6812 9.37769 10.6416 9.34759C10.6021 9.31748 10.5439 9.32689 10.5116 9.3686Z" fill="#000088"/>
<path d="M10.1219 7.0945L11.0232 7.68789L11.5011 7.88648L11.0892 7.57411L10.1219 7.0945Z" fill="#000088"/>
<path d="M10.1959 9.01836C10.1541 9.0506 10.1447 9.10883 10.1747 9.1484C10.2048 9.18797 10.263 9.19391 10.3048 9.16166C10.3465 9.12941 10.356 9.07119 10.3259 9.03162C10.2959 8.99205 10.2376 8.98611 10.1959 9.01836Z" fill="#000088"/>
<path d="M10.4085 6.71965L11.124 7.52764L11.533 7.84425L11.2165 7.43532L10.4085 6.71965Z" fill="#000088"/>
<path d="M9.98109 8.59839C9.9329 8.61878 9.90903 8.67303 9.92777 8.71957C9.94651 8.7661 10.0008 8.7873 10.049 8.7669C10.0971 8.74651 10.121 8.69226 10.1023 8.64572C10.0835 8.59919 10.0293 8.578 9.98109 8.59839Z" fill="#000088"/>
<path d="M10.7821 6.43281L11.2638 7.40031L11.5759 7.81332L11.3758 7.33568L10.7821 6.43281Z" fill="#000088"/>
<path d="M9.88272 8.13683C9.83105 8.14428 9.79387 8.19087 9.79967 8.24089C9.80547 8.2909 9.85206 8.3254 9.90373 8.31795C9.9554 8.31049 9.99258 8.2639 9.98678 8.21388C9.98098 8.16387 9.93439 8.12937 9.88272 8.13683Z" fill="#000088"/>
<path d="M11.2179 6.25173L11.4295 7.31254L11.6239 7.79247L11.5564 7.27838L11.2179 6.25173Z" fill="#000088"/>
<path d="M9.90825 7.66313C9.85876 7.65752 9.81217 7.695 9.80419 7.74685C9.7962 7.79871 9.82984 7.8453 9.87932 7.85091C9.9288 7.85653 9.97539 7.81905 9.98338 7.76719C9.99137 7.71534 9.95773 7.66875 9.90825 7.66313Z" fill="#000088"/>
<path d="M11.6985 6.19112L11.6306 7.27267L11.6646 7.7856L11.7205 7.26983L11.6985 6.19112Z" fill="#000088"/>
<path d="M10.0534 7.21452C10.0072 7.19586 9.9529 7.21986 9.93221 7.26813C9.91151 7.3164 9.93221 7.37065 9.97844 7.38931C10.0247 7.40797 10.0789 7.38397 10.0996 7.3357C10.1203 7.28743 10.0996 7.23318 10.0534 7.21452Z" fill="#000088"/>
<path d="M12.1533 6.24894L11.8118 7.28163L11.7302 7.79481L11.9215 7.31066L12.1533 6.24894Z" fill="#000088"/>
<path d="M10.31 6.81939C10.2705 6.78925 10.2123 6.79861 10.18 6.84029C10.1477 6.88197 10.1535 6.94019 10.193 6.97033C10.2325 7.00047 10.2907 6.99111 10.323 6.94943C10.3553 6.90775 10.3495 6.84953 10.31 6.81939Z" fill="#000088"/>
<path d="M12.5866 6.42955L11.9909 7.34024L11.7814 7.8167L12.0915 7.39823L12.5866 6.42955Z" fill="#000088"/>
<path d="M10.6601 6.50379C10.6301 6.46417 10.5719 6.45816 10.5301 6.49036C10.4883 6.52256 10.4788 6.58078 10.5089 6.6204C10.5389 6.66002 10.5972 6.66604 10.6389 6.63383C10.6807 6.60163 10.6902 6.54341 10.6601 6.50379Z" fill="#000088"/>
<path d="M12.9592 6.71594L12.1494 7.44257L11.8248 7.84985L12.232 7.52558L12.9592 6.71594Z" fill="#000088"/>
<path d="M11.0756 6.2927C11.0548 6.24421 11.0006 6.21985 10.9544 6.23829C10.9083 6.25673 10.8877 6.31098 10.9085 6.35947C10.9293 6.40796 10.9835 6.43232 11.0297 6.41388C11.0758 6.39544 11.0964 6.34119 11.0756 6.2927Z" fill="#000088"/>
<path d="M13.2411 7.09449L12.2738 7.5741L11.862 7.88647L12.3399 7.68788L13.2411 7.09449Z" fill="#000088"/>
<path d="M11.537 6.19484C11.5292 6.14286 11.4826 6.10517 11.433 6.11066C11.3833 6.11615 11.3495 6.16274 11.3573 6.21472C11.3652 6.2667 11.4117 6.30439 11.4614 6.2989C11.511 6.29341 11.5449 6.24682 11.537 6.19484Z" fill="#000088"/>
<path d="M13.4222 7.53077L12.3616 7.73901L11.8826 7.93392L12.3969 7.86873L13.4222 7.53077Z" fill="#000088"/>
<path d="M12.0121 6.21917C12.0174 6.16965 11.9793 6.12306 11.9271 6.11511C11.8749 6.10716 11.8283 6.14085 11.8231 6.19037C11.8178 6.23989 11.8559 6.28648 11.9081 6.29443C11.9603 6.30238 12.0069 6.26869 12.0121 6.21917Z" fill="#000088"/>
<path d="M13.483 8.00963L12.4016 7.94191L11.8894 7.97647L12.4053 8.03242L13.483 8.00963Z" fill="#000088"/>
<path d="M12.4595 6.36375C12.4783 6.31706 12.4545 6.26281 12.4064 6.24257C12.3583 6.22233 12.3041 6.24377 12.2853 6.29046C12.2664 6.33715 12.2902 6.39141 12.3383 6.41164C12.3864 6.43188 12.4406 6.41044 12.4595 6.36375Z" fill="#000088"/>
<path d="M13.4248 8.46246L12.3927 8.12165L11.8795 8.04326L12.3632 8.23532L13.4248 8.46246Z" fill="#000088"/>
<path d="M12.8542 6.62053C12.8849 6.58041 12.8763 6.52219 12.8351 6.49049C12.7938 6.45879 12.7356 6.46561 12.705 6.50573C12.6744 6.54585 12.683 6.60407 12.7242 6.63577C12.7654 6.66747 12.8236 6.66065 12.8542 6.62053Z" fill="#000088"/>
<path d="M13.244 8.89641L12.3353 8.30129L11.8586 8.0947L12.2756 8.40534L13.244 8.89641Z" fill="#000088"/>
<path d="M13.17 6.97053C13.2101 6.93987 13.2168 6.88165 13.1851 6.84048C13.1533 6.79932 13.0951 6.79079 13.055 6.82145C13.015 6.8521 13.0082 6.91033 13.04 6.95149C13.0717 6.99266 13.13 7.00118 13.17 6.97053Z" fill="#000088"/>
<path d="M12.9582 9.2694L12.2338 8.46014L11.8262 8.13761L12.1489 8.54527L12.9582 9.2694Z" fill="#000088"/>
<path d="M13.3844 7.38962C13.4312 7.37053 13.4527 7.31628 13.4326 7.26844C13.4124 7.22061 13.3582 7.19731 13.3114 7.21641C13.2646 7.2355 13.2431 7.28975 13.2632 7.33759C13.2834 7.38542 13.3376 7.40872 13.3844 7.38962Z" fill="#000088"/>
<path d="M12.5848 9.55499L12.0938 8.58667L11.7832 8.16991L11.9897 8.64675L12.5848 9.55499Z" fill="#000088"/>
<path d="M13.4828 7.8511C13.533 7.84493 13.5679 7.79834 13.5606 7.74704C13.5534 7.69574 13.5068 7.65916 13.4566 7.66534C13.4063 7.67151 13.3715 7.7181 13.3787 7.7694C13.3859 7.82069 13.4325 7.85728 13.4828 7.8511Z" fill="#000088"/>
<path d="M12.1503 9.73553L11.9249 8.67409L11.7326 8.19124L11.8098 8.7047L12.1503 9.73553Z" fill="#000088"/>
</svg>
