<svg width="25" height="20" viewBox="0 0 25 20" fill="none" xmlns="http://www.w3.org/2000/svg">
<path d="M1.25002 3.75C1.25002 3.05964 1.80966 2.5 2.50002 2.5L9.56611 2.5C10.1772 2.5 10.6986 2.94177 10.7991 3.5445L12.8824 16.0445C13.0094 16.8064 12.4219 17.5 11.6494 17.5H2.50002C1.80966 17.5 1.25002 16.9404 1.25002 16.25L1.25002 3.75Z" fill="#A5A5A5"/>
<path d="M7.9192 11.2975L6.93483 8.74687C6.90566 8.67104 6.87503 8.58354 6.84295 8.48437C6.81087 8.38229 6.78024 8.27437 6.75108 8.16062C6.68982 8.39687 6.62712 8.59375 6.56295 8.75125L5.57857 11.2975H7.9192ZM9.6867 13.625H9.03045C8.95462 13.625 8.89337 13.606 8.8467 13.5681C8.80003 13.5302 8.76503 13.4821 8.7417 13.4237L8.15545 11.91H5.34232L4.75607 13.4237C4.73857 13.4762 4.70503 13.5229 4.65545 13.5637C4.60587 13.6046 4.54462 13.625 4.4717 13.625H3.81545L6.32233 7.35562H7.17982L9.6867 13.625Z" fill="white"/>
<path d="M14.375 17.5H22.5C23.1904 17.5 23.75 16.9404 23.75 16.25V5C23.75 4.30964 23.1904 3.75 22.5 3.75L11.875 3.75" stroke="#A5A5A5" stroke-width="1.25" stroke-linecap="round"/>
<path d="M20.9647 8.93125H17.7622V10.0075C18.0306 9.75667 18.3514 9.63125 18.7247 9.63125C19.2322 9.63125 19.6406 9.78583 19.9497 10.095C20.2589 10.4042 20.4135 10.8037 20.4135 11.2937C20.4135 11.8246 20.2356 12.2475 19.8797 12.5625C19.5297 12.8775 19.0864 13.035 18.5497 13.035C18.4564 13.035 18.3893 13.0321 18.3485 13.0262V12.195C18.3835 12.2008 18.436 12.2037 18.506 12.2037C18.7685 12.2037 18.9785 12.1221 19.136 11.9587C19.2993 11.7896 19.381 11.5737 19.381 11.3112C19.381 11.0662 19.3051 10.8621 19.1535 10.6987C19.0076 10.5354 18.8093 10.4537 18.5585 10.4537C18.331 10.4537 18.1414 10.5354 17.9897 10.6987C17.8381 10.8562 17.7622 11.0604 17.7622 11.3112V13.875H16.7297V12.755C16.4672 13 16.1464 13.1225 15.7672 13.1225C15.2656 13.1225 14.8572 12.9679 14.5422 12.6587C14.2331 12.3496 14.0785 11.95 14.0785 11.46C14.0785 10.9292 14.2535 10.5062 14.6035 10.1912C14.9593 9.87625 15.4056 9.71875 15.9422 9.71875C16.0297 9.71875 16.0968 9.72167 16.1435 9.7275V10.5587C16.1085 10.5529 16.056 10.55 15.986 10.55C15.7235 10.55 15.5106 10.6346 15.3472 10.8037C15.1897 10.9671 15.111 11.18 15.111 11.4425C15.111 11.6875 15.1839 11.8917 15.3297 12.055C15.4814 12.2183 15.6856 12.3 15.9422 12.3C16.1639 12.3 16.3506 12.2212 16.5022 12.0637C16.6539 11.9004 16.7297 11.6933 16.7297 11.4425V8.93125H13.536V8.1H20.9647V8.93125Z" fill="#A5A5A5"/>
</svg>
