<svg width="20" height="20" viewBox="0 0 20 20" fill="none" xmlns="http://www.w3.org/2000/svg">
<mask id="mask0_1703_494" style="mask-type:alpha" maskUnits="userSpaceOnUse" x="0" y="0" width="20" height="20">
<rect x="1.52588e-05" width="20" height="20" fill="#D9D9D9"/>
</mask>
<g mask="url(#mask0_1703_494)">
<path d="M5.00002 17.9166C4.4178 17.9166 3.92502 17.7149 3.52169 17.3116C3.11835 16.9083 2.91669 16.4155 2.91669 15.8333V13.4295H5.41669V2.08325L17.0834 2.08325V15.8333C17.0834 16.4155 16.8817 16.9083 16.4784 17.3116C16.075 17.7149 15.5822 17.9166 15 17.9166H5.00002ZM15 16.6666C15.2361 16.6666 15.434 16.5867 15.5938 16.427C15.7535 16.2673 15.8334 16.0694 15.8334 15.8333V3.33325L6.66669 3.33325V13.4295H14.1667V15.8333C14.1667 16.0694 14.2465 16.2673 14.4063 16.427C14.566 16.5867 14.7639 16.6666 15 16.6666ZM7.66023 7.24346V5.99346H14.8398V7.24346H7.66023ZM7.66023 9.64742V8.39742H14.8398V9.64742H7.66023ZM5.00002 16.6666H12.9167V14.6793H4.16669V15.8333C4.16669 16.0694 4.24655 16.2673 4.40627 16.427C4.56599 16.5867 4.76391 16.6666 5.00002 16.6666ZM5.00002 16.6666H4.16669H12.9167H5.00002Z" fill="#A5A5A5"/>
</g>
</svg>
