<svg width="20" height="20" viewBox="0 0 20 20" fill="none" xmlns="http://www.w3.org/2000/svg">
<mask id="mask0_1703_486" style="mask-type:alpha" maskUnits="userSpaceOnUse" x="0" y="0" width="20" height="20">
<rect x="1.52588e-05" width="20" height="20" fill="#D9D9D9"/>
</mask>
<g mask="url(#mask0_1703_486)">
<path d="M4.42315 17.0834C4.00217 17.0834 3.64585 16.9376 3.35419 16.6459C3.06252 16.3542 2.91669 15.9979 2.91669 15.577L2.91669 4.42321C2.91669 4.00223 3.06252 3.64591 3.35419 3.35425C3.64585 3.06258 4.00217 2.91675 4.42315 2.91675H10.0079V4.16675H4.42315C4.35898 4.16675 4.30023 4.19348 4.2469 4.24696C4.19342 4.30029 4.16669 4.35904 4.16669 4.42321V15.577C4.16669 15.6411 4.19342 15.6999 4.2469 15.7532C4.30023 15.8067 4.35898 15.8334 4.42315 15.8334H10.0079V17.0834H4.42315ZM13.5256 13.5578L12.6602 12.6538L14.6892 10.6251H7.58023V9.37508H14.6892L12.6602 7.34633L13.5256 6.44237L17.0834 10.0001L13.5256 13.5578Z" fill="#A5A5A5"/>
</g>
</svg>
