<svg width="22" height="22" viewBox="0 0 22 22" fill="none" xmlns="http://www.w3.org/2000/svg">
<path fill-rule="evenodd" clip-rule="evenodd" d="M15.634 4.55355H10.4771C10.026 4.55355 9.65963 4.91167 9.65963 5.35275C9.65963 5.79384 10.026 6.15196 10.4771 6.15196H17.4094C17.4565 6.15196 17.5028 6.148 17.5477 6.14057C18.3763 6.63874 18.8028 7.44205 18.8028 8.53175V16.6284C18.8028 18.4275 17.2595 19.8776 15.3714 19.8776H5.56639C3.67826 19.8776 2.13501 18.4275 2.13501 16.6284V8.53175C2.13501 8.45142 2.13811 8.37179 2.14415 8.29285C2.14616 8.2662 2.14686 8.23948 2.14616 8.21275C2.11619 7.0624 2.85001 5.97193 4.04366 5.54471L11.7739 2.77829C13.293 2.23464 14.994 2.9587 15.5646 4.40613C15.577 4.43758 15.6021 4.49018 15.6339 4.5537L15.634 4.55355Z" fill="white"/>
<path fill-rule="evenodd" clip-rule="evenodd" d="M17.3237 4.29224C19.3841 4.94372 20.4377 6.38488 20.4377 8.53181V16.6285C20.4377 19.2982 18.1733 21.476 15.3714 21.476H5.56635C2.76445 21.476 0.5 19.2982 0.5 16.6285V8.53181C0.5 8.42476 0.503641 8.31847 0.510845 8.21374C0.481254 6.41795 1.61697 4.71125 3.48162 4.04389L11.2118 1.27747C13.5721 0.432791 16.2037 1.5826 17.0902 3.83148C17.1262 3.92273 17.2258 4.10602 17.3237 4.29224ZM15.6339 4.55376C15.6021 4.49024 15.577 4.43764 15.5646 4.40619C14.994 2.95876 13.293 2.2347 11.7738 2.77835L4.04363 5.54477C2.84997 5.97191 2.11607 7.06238 2.14613 8.21281C2.14682 8.23954 2.14613 8.26626 2.14411 8.29291C2.13807 8.37177 2.13497 8.45148 2.13497 8.53181V16.6285C2.13497 18.4276 3.67823 19.8777 5.56635 19.8777H15.3714C17.2595 19.8777 18.8028 18.4276 18.8028 16.6285V8.53181C18.8028 7.44219 18.3763 6.63888 17.5477 6.14063C17.5027 6.14814 17.4564 6.15202 17.4093 6.15202H10.4771C10.0259 6.15202 9.65959 5.7939 9.65959 5.35281C9.65959 4.91173 10.0259 4.55361 10.4771 4.55361H15.634L15.6339 4.55376Z" fill="#8FBFFA"/>
<path fill-rule="evenodd" clip-rule="evenodd" d="M20.6288 10.9415V13.6692C20.6288 14.4219 20.0177 15.033 19.2649 15.033H15.0313C14.2786 15.033 13.6675 14.4219 13.6675 13.6692V10.9415C13.6675 10.1888 14.2786 9.57764 15.0313 9.57764H19.2649C20.0177 9.57764 20.6288 10.1888 20.6288 10.9415Z" fill="#2859C5"/>
<path fill-rule="evenodd" clip-rule="evenodd" d="M16.3705 12.0033V12.608C16.3705 13.0373 16.0221 13.3857 15.5929 13.3857C15.1636 13.3857 14.8152 13.0373 14.8152 12.608V12.0033C14.8152 11.574 15.1636 11.2256 15.5929 11.2256C16.0221 11.2256 16.3705 11.574 16.3705 12.0033Z" fill="#8FBFFA"/>
</svg>
