<svg width="20" height="20" viewBox="0 0 20 20" fill="none" xmlns="http://www.w3.org/2000/svg">
<mask id="mask0_1674_8680" style="mask-type:alpha" maskUnits="userSpaceOnUse" x="0" y="0" width="20" height="20">
<rect x="1.52588e-05" width="20" height="20" fill="#D9D9D9"/>
</mask>
<g mask="url(#mask0_1674_8680)">
<path d="M11.4584 10.5929C10.8761 10.5929 10.3834 10.3912 9.98002 9.98786C9.57668 9.58453 9.37502 9.09175 9.37502 8.50953C9.37502 7.9273 9.57668 7.43453 9.98002 7.03119C10.3834 6.62786 10.8761 6.42619 11.4584 6.42619C12.0406 6.42619 12.5334 6.62786 12.9367 7.03119C13.34 7.43453 13.5417 7.9273 13.5417 8.50953C13.5417 9.09175 13.34 9.58453 12.9367 9.98786C12.5334 10.3912 12.0406 10.5929 11.4584 10.5929ZM5.96148 13.1731C5.54731 13.1731 5.19273 13.0256 4.89773 12.7306C4.60273 12.4356 4.45523 12.0809 4.45523 11.6666V5.35244C4.45523 4.93827 4.60273 4.58369 4.89773 4.28869C5.19273 3.99369 5.54731 3.84619 5.96148 3.84619L16.955 3.84619C17.3693 3.84619 17.724 3.99369 18.019 4.28869C18.314 4.58369 18.4615 4.93827 18.4615 5.35244V11.6666C18.4615 12.0809 18.314 12.4356 18.019 12.7306C17.724 13.0256 17.3693 13.1731 16.955 13.1731H5.96148ZM7.21148 11.9231H15.7052C15.7052 11.5075 15.8527 11.1525 16.1477 10.8581C16.4427 10.5638 16.7973 10.4166 17.2115 10.4166V6.60244C16.7959 6.60244 16.441 6.45494 16.1467 6.15994C15.8524 5.86494 15.7052 5.51036 15.7052 5.09619H7.21148C7.21148 5.51175 7.06398 5.86668 6.76898 6.16098C6.47398 6.45529 6.11939 6.60244 5.70523 6.60244V10.4166C6.12078 10.4166 6.47571 10.5641 6.77002 10.8591C7.06432 11.1541 7.21148 11.5088 7.21148 11.9231ZM15.9775 16.0897H3.04502C2.63071 16.0897 2.27606 15.9422 1.98106 15.6472C1.68606 15.3522 1.53856 14.9976 1.53856 14.5833L1.53856 6.33015H2.78856V14.5833C2.78856 14.6473 2.81523 14.7061 2.86856 14.7595C2.92203 14.813 2.98085 14.8397 3.04502 14.8397H15.9775V16.0897ZM5.96148 11.9231H5.70523V5.09619H5.96148C5.89203 5.09619 5.83196 5.12154 5.78127 5.17223C5.73057 5.22293 5.70523 5.283 5.70523 5.35244V11.6666C5.70523 11.7361 5.73057 11.7961 5.78127 11.8468C5.83196 11.8976 5.89203 11.9231 5.96148 11.9231Z" fill="#A5A5A5"/>
</g>
</svg>
