<svg width="16" height="16" viewBox="0 0 16 16" fill="none" xmlns="http://www.w3.org/2000/svg">
<path d="M8 16C6.90667 16 5.87333 15.79 4.9 15.37C3.92667 14.95 3.07667 14.3767 2.35 13.65C1.62333 12.9233 1.05 12.0733 0.63 11.1C0.21 10.1267 0 9.09333 0 8C0 6.89333 0.21 5.85667 0.63 4.89C1.05 3.92333 1.62333 3.07667 2.35 2.35C3.07667 1.62333 3.92667 1.05 4.9 0.63C5.87333 0.21 6.90667 0 8 0C9.10667 0 10.1433 0.21 11.11 0.63C12.0767 1.05 12.9233 1.62333 13.65 2.35C14.3767 3.07667 14.95 3.92333 15.37 4.89C15.79 5.85667 16 6.89333 16 8C16 9.09333 15.79 10.1267 15.37 11.1C14.95 12.0733 14.3767 12.9233 13.65 13.65C12.9233 14.3767 12.0767 14.95 11.11 15.37C10.1433 15.79 9.10667 16 8 16ZM8 12.8C9.33333 12.8 10.4667 12.3333 11.4 11.4C12.3333 10.4667 12.8 9.33333 12.8 8C12.8 6.66667 12.3333 5.53333 11.4 4.6C10.4667 3.66667 9.33333 3.2 8 3.2C6.66667 3.2 5.53333 3.66667 4.6 4.6C3.66667 5.53333 3.2 6.66667 3.2 8C3.2 9.33333 3.66667 10.4667 4.6 11.4C5.53333 12.3333 6.66667 12.8 8 12.8Z" fill="#2B64E5"/>
</svg>
