<svg width="20" height="20" viewBox="0 0 20 20" fill="none" xmlns="http://www.w3.org/2000/svg">
<mask id="mask0_1674_8751" style="mask-type:alpha" maskUnits="userSpaceOnUse" x="0" y="0" width="20" height="20">
<rect x="1.52588e-05" width="20" height="20" fill="#D9D9D9"/>
</mask>
<g mask="url(#mask0_1674_8751)">
<path d="M14.1185 13.9231C13.5994 13.9231 13.1571 13.7404 12.7917 13.3749C12.4262 13.0095 12.2435 12.5672 12.2435 12.0481C12.2435 11.5288 12.4262 11.0864 12.7917 10.721C13.1571 10.3557 13.5994 10.1731 14.1185 10.1731C14.6378 10.1731 15.0801 10.3557 15.4454 10.721C15.8108 11.0864 15.9935 11.5288 15.9935 12.0481C15.9935 12.5672 15.8108 13.0095 15.4454 13.3749C15.0801 13.7404 14.6378 13.9231 14.1185 13.9231ZM10.1602 18.0897V17.1314C10.1602 16.8354 10.2359 16.5637 10.3873 16.3162C10.5387 16.0687 10.7536 15.8906 11.0321 15.782C11.5168 15.579 12.0183 15.4267 12.5367 15.3252C13.055 15.2238 13.5823 15.1731 14.1185 15.1731C14.6441 15.1731 15.1662 15.2238 15.685 15.3252C16.2037 15.4267 16.7105 15.579 17.2052 15.782C17.4837 15.8906 17.6985 16.0687 17.8498 16.3162C18.0012 16.5637 18.0769 16.8354 18.0769 17.1314V18.0897H10.1602ZM8.17311 11.7435C7.37103 11.7435 6.68436 11.4579 6.11311 10.8868C5.542 10.3156 5.25644 9.62891 5.25644 8.82682C5.25644 8.02474 5.542 7.33814 6.11311 6.76703C6.68436 6.19578 7.37103 5.91016 8.17311 5.91016C8.97519 5.91016 9.66179 6.19578 10.2329 6.76703C10.8042 7.33814 11.0898 8.02474 11.0898 8.82682C11.0898 9.62891 10.8042 10.3156 10.2329 10.8868C9.66179 11.4579 8.97519 11.7435 8.17311 11.7435ZM1.92311 18.0897L1.92311 16.237C1.92311 15.8208 2.03179 15.4381 2.24915 15.0891C2.46665 14.7401 2.76499 14.4774 3.14415 14.3012C3.92943 13.9059 4.7445 13.6052 5.58936 13.3989C6.43422 13.1928 7.29547 13.0897 8.17311 13.0897C8.58436 13.0897 8.99568 13.1194 9.40707 13.1787C9.81832 13.238 10.2296 13.3098 10.641 13.3941C10.4637 13.5741 10.2863 13.7542 10.1089 13.9343L9.57686 14.4743C9.34297 14.4182 9.10901 14.3818 8.87499 14.3649C8.64096 14.3481 8.407 14.3397 8.17311 14.3397C7.39422 14.3397 6.62874 14.4289 5.87665 14.6072C5.12443 14.7857 4.40485 15.0555 3.7179 15.4166C3.55763 15.502 3.42672 15.6139 3.32519 15.7522C3.22381 15.8907 3.17311 16.0523 3.17311 16.237V16.8397H8.17311V18.0897H1.92311ZM8.17311 10.4935C8.63144 10.4935 9.02381 10.3303 9.35019 10.0039C9.67658 9.67752 9.83978 9.28516 9.83978 8.82682C9.83978 8.36849 9.67658 7.97613 9.35019 7.64974C9.02381 7.32335 8.63144 7.16016 8.17311 7.16016C7.71478 7.16016 7.32242 7.32335 6.99603 7.64974C6.66964 7.97613 6.50644 8.36849 6.50644 8.82682C6.50644 9.28516 6.66964 9.67752 6.99603 10.0039C7.32242 10.3303 7.71478 10.4935 8.17311 10.4935Z" fill="#A5A5A5"/>
<path d="M16.1023 2.55682L15.9091 3.21591H12.2273L12.4205 2.55682H16.1023ZM14.375 7L12.2955 4.45455L12.2841 3.97727H13.3182C13.5871 3.97727 13.8163 3.93939 14.0057 3.86364C14.1951 3.78598 14.34 3.67045 14.4404 3.51705C14.5407 3.36174 14.5909 3.16667 14.5909 2.93182C14.5909 2.58523 14.4868 2.31345 14.2784 2.11648C14.0701 1.91761 13.75 1.81818 13.3182 1.81818H12.2273L12.4205 1.18182H13.3182C13.7803 1.18182 14.1591 1.25852 14.4546 1.41193C14.7519 1.56345 14.9716 1.77178 15.1137 2.03693C15.2576 2.30019 15.3296 2.59848 15.3296 2.93182C15.3296 3.23295 15.2633 3.51042 15.1307 3.7642C15 4.0161 14.7898 4.21875 14.5 4.37216C14.2121 4.52557 13.8315 4.60227 13.358 4.60227H13.3409L15.2614 6.95455V7H14.375ZM16.1023 1.18182L15.9091 1.84091L13.0114 1.81818L13.2046 1.18182H16.1023Z" fill="#A5A5A5"/>
</g>
</svg>
