<svg width="52" height="52" viewBox="0 0 52 52" fill="none" xmlns="http://www.w3.org/2000/svg">
<g filter="url(#filter0_d_1799_1005)">
<circle cx="26" cy="22" r="14" fill="white"/>
<circle cx="26" cy="22" r="12" fill="#002CC0"/>
<mask id="mask0_1799_1005" style="mask-type:alpha" maskUnits="userSpaceOnUse" x="18" y="14" width="17" height="17">
<rect x="18.1001" y="14.2402" width="16" height="16" fill="#D9D9D9"/>
</mask>
<g mask="url(#mask0_1799_1005)">
<path d="M26.1003 25.9069C26.9336 25.9069 27.6419 25.6152 28.2253 25.0319C28.8086 24.4486 29.1003 23.7402 29.1003 22.9069C29.1003 22.0736 28.8086 21.3652 28.2253 20.7819C27.6419 20.1986 26.9336 19.9069 26.1003 19.9069C25.2669 19.9069 24.5586 20.1986 23.9753 20.7819C23.3919 21.3652 23.1003 22.0736 23.1003 22.9069C23.1003 23.7402 23.3919 24.4486 23.9753 25.0319C24.5586 25.6152 25.2669 25.9069 26.1003 25.9069ZM26.1003 24.5736C25.6336 24.5736 25.2391 24.4125 24.9169 24.0902C24.5947 23.768 24.4336 23.3736 24.4336 22.9069C24.4336 22.4402 24.5947 22.0458 24.9169 21.7236C25.2391 21.4013 25.6336 21.2402 26.1003 21.2402C26.5669 21.2402 26.9614 21.4013 27.2836 21.7236C27.6058 22.0458 27.7669 22.4402 27.7669 22.9069C27.7669 23.3736 27.6058 23.768 27.2836 24.0902C26.9614 24.4125 26.5669 24.5736 26.1003 24.5736ZM20.7669 28.2402C20.4003 28.2402 20.0864 28.1097 19.8253 27.8486C19.5641 27.5875 19.4336 27.2736 19.4336 26.9069V18.9069C19.4336 18.5402 19.5641 18.2263 19.8253 17.9652C20.0864 17.7041 20.4003 17.5736 20.7669 17.5736H22.8669L24.1003 16.2402H28.1003L29.3336 17.5736H31.4336C31.8003 17.5736 32.1141 17.7041 32.3753 17.9652C32.6364 18.2263 32.7669 18.5402 32.7669 18.9069V26.9069C32.7669 27.2736 32.6364 27.5875 32.3753 27.8486C32.1141 28.1097 31.8003 28.2402 31.4336 28.2402H20.7669Z" fill="white"/>
</g>
</g>
<defs>
<filter id="filter0_d_1799_1005" x="0" y="0" width="52" height="52" filterUnits="userSpaceOnUse" color-interpolation-filters="sRGB">
<feFlood flood-opacity="0" result="BackgroundImageFix"/>
<feColorMatrix in="SourceAlpha" type="matrix" values="0 0 0 0 0 0 0 0 0 0 0 0 0 0 0 0 0 0 127 0" result="hardAlpha"/>
<feOffset dy="4"/>
<feGaussianBlur stdDeviation="6"/>
<feComposite in2="hardAlpha" operator="out"/>
<feColorMatrix type="matrix" values="0 0 0 0 0 0 0 0 0 0 0 0 0 0 0 0 0 0 0.12 0"/>
<feBlend mode="normal" in2="BackgroundImageFix" result="effect1_dropShadow_1799_1005"/>
<feBlend mode="normal" in="SourceGraphic" in2="effect1_dropShadow_1799_1005" result="shape"/>
</filter>
</defs>
</svg>
