<svg width="48" height="19" viewBox="0 0 48 19" fill="none" xmlns="http://www.w3.org/2000/svg">
<path d="M47.7299 3.1512C47.7299 4.52901 46.6117 5.646 45.2323 5.646C43.8528 5.646 42.7346 4.52901 42.7346 3.1512C42.7346 1.77339 43.8528 0.656411 45.2323 0.656411C46.6117 0.656411 47.7299 1.77339 47.7299 3.1512Z" fill="#E8262B"/>
<path d="M42.5257 7.21995H47.7237V18.4329H42.5257V7.21995Z" fill="#192653"/>
<path d="M26.433 3.08461H41.1424V6.50923H36.3315V18.4402H31.1887L31.1323 6.61239L26.433 6.50923V3.08461Z" fill="#192653"/>
<path d="M1.52588e-05 3.08421H5.58534L7.63144 13.966L9.89872 3.08421H15.4287L17.4748 13.966L19.5761 3.08421H24.7191L20.1292 18.4402H14.5439L12.3595 8.00035L10.1199 18.4402H4.36875L1.52588e-05 3.08421Z" fill="#192653"/>
</svg>
